<?xml version="1.0" encoding="UTF-8"?>
<svg id="Layer_1" xmlns="http://www.w3.org/2000/svg" version="1.1" viewBox="0 0 948 251.24">
  <!-- Generator: Adobe Illustrator 30.5.1, SVG Export Plug-In . SVG Version: 2.1.4 Build 3)  -->
  <defs>
    <style>
      .st0 {
        stroke-opacity: .13;
      }

      .st0, .st1 {
        stroke: #fff;
      }

      .st0, .st1, .st2, .st3, .st4, .st5 {
        fill: none;
      }

      .st1 {
        stroke-opacity: .06;
      }

      .st2 {
        stroke: #5d9ec7;
        stroke-width: 1.8px;
      }

      .st2, .st5 {
        stroke-linecap: round;
        stroke-linejoin: round;
      }

      .st6 {
        font-family: Inter18pt-SemiBoldItalic, 'Inter 18pt';
        font-size: 27px;
        font-style: italic;
      }

      .st6, .st7 {
        font-weight: 600;
        isolation: isolate;
      }

      .st6, .st7, .st8 {
        fill: #8fb032;
      }

      .st3 {
        stroke: #e19c24;
        stroke-width: 2px;
      }

      .st7 {
        font-family: Inter18pt-SemiBold, 'Inter 18pt';
        font-size: 17px;
      }

      .st4 {
        stroke-width: 2.4px;
      }

      .st4, .st5 {
        stroke: #8fb032;
      }

      .st8 {
        fill-opacity: .12;
      }

      .st5 {
        stroke-width: 2.6px;
      }
    </style>
  </defs>
  <g>
    <line class="st1" x1="1" y1="230.3" x2="947" y2="230.3"/>
    <line class="st1" x1="1" y1="177.96" x2="947" y2="177.96"/>
    <line class="st0" x1="1" y1="125.62" x2="947" y2="125.62"/>
    <line class="st1" x1="1" y1="73.28" x2="947" y2="73.28"/>
    <line class="st1" x1="1" y1="20.94" x2="947" y2="20.94"/>
  </g>
  <path class="st8" d="M1.6,125.62v.36l2.8-.07,2.7-.22,2.7.14,2.8-.07,2.7-.14,2.7-.22,2.8.14,2.7.14,2.8.14,2.7.22,2.7.22,2.8-.43,2.7-.14,2.7.14,2.8.36,2.7.29,2.8-.14,2.7-.72,2.7-.22,2.8.29,2.7.36,2.7.07,2.8-.29,2.7-.14,2.8-.22h2.7l2.7.22h2.8l2.7.29,2.7-.14,2.8-.14,2.7-.14,2.8-.07,2.7.14,2.7.36,2.8.43,2.7-.14h2.7l2.8-.07,2.7.29,2.8.22,2.7.14,2.7.14,2.8-.29,2.7.22,2.7.22,2.8.29,2.7.72,2.8,1.16,2.7,1.23,2.7,1.52,2.8,1.8,2.7,2.24,2.7,1.88,2.8,1.3,2.7,1.08,2.7,1.16,2.8.79,2.7.65,2.8.87,2.7,1.01,2.7.87,2.8.87h2.7l2.7.43,2.8.22,2.7.43,2.8.58,2.7-.22,2.7-.29,2.8.07,2.7-.29,2.7-.79,2.8-.51,2.7.07,2.8-.87,2.7-1.23,2.7-1.08,2.8-1.59,2.7-1.44,2.7-1.23,2.8-1.59,2.7-2.24,2.8-2.74,2.7-1.44,2.7-2.09,2.8-2.17,2.7-1.16,2.7.58,2.8.51,2.7.72,2.8.14,2.7-.43,2.7-.79,2.8-.29,2.7-.51,2.7-1.3,2.8-1.8,2.7-2.45,2.8-2.67,2.7-3.03,2.7-3.18,2.8-2.31,2.7-1.16,2.7.87,2.8,1.23,2.7,1.23,2.8.51,2.7-.29,2.7-.43,2.8-1.01,2.7-1.44,2.7-2.74,2.8-3.97,2.7-4.04,2.8-3.47,2.7-1.3,2.7.14h2.8l2.7-.58,2.7-1.52,2.8-2.6,2.7-3.03,2.8-2.82,2.7-3.03,2.7-1.95,2.8-1.59,2.7-1.52,2.7-.43,2.8.79,2.7.58,2.7.29,2.8.58,2.7.14,2.8-.14,2.7-.36,2.7-.29,2.8-.22,2.7-.43,2.7-1.3,2.8-2.09,2.7-1.59,2.8-2.24,2.7-3.03,2.7-5.05,2.8-4.4,2.7-.94,2.7,2.02,2.8,5.92,2.7,8.23,2.8,10.4,2.7,11.33,2.7,12.85,2.8,13.43,2.7,13.72,2.7,15.88,2.8,12.2,2.7,5.78,2.8,2.67,2.7,1.16,2.7,6.93,2.8,9.02,2.7,7.51,2.7,8.59,2.8,8.09,2.7,3.75,2.8-5.27,2.7-11.7,2.7-12.2,2.8-9.31,2.7-7.44,2.7-4.91,2.8-.87,2.7,3.18,2.8,5.7,2.7,3.68,2.7,1.37,2.8.65,2.7,1.08,2.7,1.08,2.8,1.37,2.7.22,2.8-.94,2.7-1.16,2.7-1.08,2.8-.94,2.7-.51,2.7-.58,2.8-.51,2.7-.58,2.8-.29,2.7-.29,2.7-.43,2.8.14,2.7.36,2.7.72,2.8.87,2.7.51,2.8,1.44,2.7.72,2.7-.07,2.8.51,2.7.51h2.7l2.8.65,2.7,2.09,2.8.58,2.7-.51,2.7-1.37,2.8-5.05,2.7-11.05,2.7-18.55,2.8-18.84,2.7-22.6,2.7-36.17,2.8-54.58,2.7,8.95,2.8,7.72,2.7,3.54,2.7,16.03,2.8,26.35,2.7,13.5,2.7-1.44,2.8-9.96,2.7-9.96,2.8-.43,2.7,8.01,2.7,3.03,2.8-2.02,2.7-2.96,2.7-4.98,2.8-6.5,2.7-2.38,2.8,2.89,2.7,4.98,2.7,7.15,2.8,7.22,2.7,5.85,2.7,2.6,2.8-.51,2.7-2.89,2.8-4.04,2.7-3.03,2.7-.07,2.8,2.45,2.7,3.18,2.7,3.83,2.8,4.76,2.7,5.13,2.8,4.76,2.7,3.97,2.7,2.09,2.8,2.17,2.7,1.23,2.7,1.8,2.8,3.54,2.7,3.1,2.8,3.61,2.7,3.68,2.7,3.18,2.8,3.25,2.7,3.39,2.7,3.1,2.8,1.95,2.7,1.88,2.8,1.88,2.7,2.02,2.7,2.74,2.8,3.03,2.7,3.1,2.7,3.47,2.8,3.68,2.7,3.47,2.8,2.38,2.7.43,2.7.07,2.8-.65,2.7-2.45,2.7-4.04,2.8-5.49,2.7-5.49,2.8-5.7,2.7-6.71,2.7-8.23,2.8-9.75,2.7-9.31,2.7-5.85,2.8-2.6,2.7.79,2.7,4.55,2.8,4.84,2.7,4.55,2.8,3.97,2.7,3.47,2.7,3.83,2.8,3.32,2.7,1.3,2.7-.43,2.8-2.24,2.7-3.1,2.8-3.75,2.7-3.68,2.7-2.89,2.8-1.59,2.7-.87,2.7-.14,2.8.94,2.7,1.01,2.8,1.8,2.7,1.88,2.7,1.95,2.8,1.3,2.7.87,2.7.36,2.8.07,2.7-.07,2.8.14,2.7.51,2.7.36,2.8-.14,2.7-.58,2.7-.65,2.8-.65,2.7-.43,2.8-.72,2.7-.22,2.7-.07h2.8l2.7.14,2.7.14,2.8-.29,2.7-.51,2.8-.58,2.7-.29,2.7.14,2.8.29,2.7.36h2.7l2.8-.22,2.7.14,2.8.14,2.7.58,2.7,1.08,2.8.87,2.7.22v-1.95H1.6Z"/>
  <line class="st3" x1="1" x2="1" y2="251.24"/>
  <line class="st3" x1="947" x2="947" y2="251.24"/>
  <path class="st2" d="M1.6,125.98l2.8-.07,2.7-.22,2.7.14,2.8-.07,2.7-.14,2.7-.22,2.8.14,2.7.14,2.8.14,2.7.22,2.7.22,2.8-.43,2.7-.14,2.7.14,2.8.36,2.7.29,2.8-.14,2.7-.72,2.7-.22,2.8.29,2.7.36,2.7.07,2.8-.29,2.7-.14,2.8-.22h2.7l2.7.22h2.8l2.7.29,2.7-.14,2.8-.14,2.7-.14,2.8-.07,2.7.14,2.7.36,2.8.43,2.7-.14h2.7l2.8-.07,2.7.29,2.8.22,2.7.14,2.7.14,2.8-.29,2.7.22,2.7.22,2.8.29,2.7.72,2.8,1.16,2.7,1.23,2.7,1.52,2.8,1.8,2.7,2.24,2.7,1.88,2.8,1.3,2.7,1.08,2.7,1.16,2.8.79,2.7.65,2.8.87,2.7,1.01,2.7.87,2.8.87h2.7l2.7.43,2.8.22,2.7.43,2.8.58,2.7-.22,2.7-.29,2.8.07,2.7-.29,2.7-.79,2.8-.51,2.7.07,2.8-.87,2.7-1.23,2.7-1.08,2.8-1.59,2.7-1.44,2.7-1.23,2.8-1.59,2.7-2.24,2.8-2.74,2.7-1.44,2.7-2.09,2.8-2.17,2.7-1.16,2.7.58,2.8.51,2.7.72,2.8.14,2.7-.43,2.7-.79,2.8-.29,2.7-.51,2.7-1.3,2.8-1.8,2.7-2.45,2.8-2.67,2.7-3.03,2.7-3.18,2.8-2.31,2.7-1.16,2.7.87,2.8,1.23,2.7,1.23,2.8.51,2.7-.29,2.7-.43,2.8-1.01,2.7-1.44,2.7-2.74,2.8-3.97,2.7-4.04,2.8-3.47,2.7-1.3,2.7.14h2.8l2.7-.58,2.7-1.52,2.8-2.6,2.7-3.03,2.8-2.82,2.7-3.03,2.7-1.95,2.8-1.59,2.7-1.52,2.7-.43,2.8.79,2.7.58,2.7.29,2.8.58,2.7.14,2.8-.14,2.7-.36,2.7-.29,2.8-.22,2.7-.43,2.7-1.3,2.8-2.09,2.7-1.59,2.8-2.24,2.7-3.03,2.7-5.05,2.8-4.4,2.7-.94,2.7,2.02,2.8,5.92,2.7,8.23,2.8,10.4,2.7,11.33,2.7,12.85,2.8,13.43,2.7,13.72,2.7,15.88,2.8,12.2,2.7,5.78,2.8,2.67,2.7,1.16,2.7,6.93,2.8,9.02,2.7,7.51,2.7,8.59,2.8,8.09,2.7,3.75,2.8-5.27,2.7-11.7,2.7-12.2,2.8-9.31,2.7-7.44,2.7-4.91,2.8-.87,2.7,3.18,2.8,5.7,2.7,3.68,2.7,1.37,2.8.65,2.7,1.08,2.7,1.08,2.8,1.37,2.7.22,2.8-.94,2.7-1.16,2.7-1.08,2.8-.94,2.7-.51,2.7-.58,2.8-.51,2.7-.58,2.8-.29,2.7-.29,2.7-.43,2.8.14,2.7.36,2.7.72,2.8.87,2.7.51,2.8,1.44,2.7.72,2.7-.07,2.8.51,2.7.51h2.7l2.8.65,2.7,2.09,2.8.58,2.7-.51,2.7-1.37,2.8-5.05,2.7-11.05,2.7-18.55,2.8-18.84,2.7-22.6,2.7-36.17,2.8-54.58,2.7,8.95,2.8,7.72,2.7,3.54,2.7,16.03,2.8,26.35,2.7,13.5,2.7-1.44,2.8-9.96,2.7-9.96,2.8-.43,2.7,8.01,2.7,3.03,2.8-2.02,2.7-2.96,2.7-4.98,2.8-6.5,2.7-2.38,2.8,2.89,2.7,4.98,2.7,7.15,2.8,7.22,2.7,5.85,2.7,2.6,2.8-.51,2.7-2.89,2.8-4.04,2.7-3.03,2.7-.07,2.8,2.45,2.7,3.18,2.7,3.83,2.8,4.76,2.7,5.13,2.8,4.76,2.7,3.97,2.7,2.09,2.8,2.17,2.7,1.23,2.7,1.8,2.8,3.54,2.7,3.1,2.8,3.61,2.7,3.68,2.7,3.18,2.8,3.25,2.7,3.39,2.7,3.1,2.8,1.95,2.7,1.88,2.8,1.88,2.7,2.02,2.7,2.74,2.8,3.03,2.7,3.1,2.7,3.47,2.8,3.68,2.7,3.47,2.8,2.38,2.7.43,2.7.07,2.8-.65,2.7-2.45,2.7-4.04,2.8-5.49,2.7-5.49,2.8-5.7,2.7-6.71,2.7-8.23,2.8-9.75,2.7-9.31,2.7-5.85,2.8-2.6,2.7.79,2.7,4.55,2.8,4.84,2.7,4.55,2.8,3.97,2.7,3.47,2.7,3.83,2.8,3.32,2.7,1.3,2.7-.43,2.8-2.24,2.7-3.1,2.8-3.75,2.7-3.68,2.7-2.89,2.8-1.59,2.7-.87,2.7-.14,2.8.94,2.7,1.01,2.8,1.8,2.7,1.88,2.7,1.95,2.8,1.3,2.7.87,2.7.36,2.8.07,2.7-.07,2.8.14,2.7.51,2.7.36,2.8-.14,2.7-.58,2.7-.65,2.8-.65,2.7-.43,2.8-.72,2.7-.22,2.7-.07h2.8l2.7.14,2.7.14,2.8-.29,2.7-.51,2.8-.58,2.7-.29,2.7.14,2.8.29,2.7.36h2.7l2.8-.22,2.7.14,2.8.14,2.7.58,2.7,1.08,2.8.87,2.7.22"/>
  <path class="st5" d="M1.6,125.62h32.9l2.7.07h13.7l2.7.07h8.2l2.8.07h5.5l2.7.07h8.2l2.7.07h5.5l2.8.07h5.4l2.8.07h5.4l2.8.07h2.7l2.8.07h2.7l2.7.07,2.8.07h2.7l2.7.07,2.8.07,2.7.07,2.8.07,2.7.14,2.7.07,2.8.14,2.7.22,2.7.14,2.8.29,2.7.29,2.7.36,2.8.43,2.7.51,2.8.51,2.7.65,2.7.72,2.8.72,2.7.87,2.7.94,2.8,1.01,2.7,1.08,2.8,1.16,2.7,1.23,2.7,1.37,2.8,1.37,2.7,1.52,2.7,1.59,2.8,1.66,2.7,1.73,2.8,1.8,2.7,1.88,2.7,2.02,2.8,2.02,2.7,2.09,2.7,2.09,2.8,2.24,2.7,2.24,2.8,2.24,2.7,2.31,2.7,2.31,2.8,2.31,2.7,2.31,2.7,2.38,2.8,2.31,2.7,2.31,2.8,2.38,2.7,2.31,2.7,2.38,2.8,2.31,2.7,2.38,2.7,2.31,2.8,2.38,2.7,2.31,2.8,2.31,2.7,2.31,2.7,2.24,2.8,2.17,2.7,2.09,2.7,2.09,2.8,1.95,2.7,1.95,2.8,1.88,2.7,1.8,2.7,1.73,2.8,1.73,2.7,1.59,2.7,1.59,2.8,1.52,2.7,1.37,2.8,1.3,2.7,1.23,2.7,1.01,2.8.94,2.7.79,2.7.72,2.8.58,2.7.36,2.8.29,2.7.07,2.7-.07,2.8-.29,2.7-.43,2.7-.65,2.8-.87,2.7-1.01,2.7-1.23,2.8-1.37,2.7-1.66,2.8-1.73,2.7-2.02,2.7-2.09,2.8-2.38,2.7-2.53,2.7-2.74,2.8-2.96,2.7-3.1,2.8-3.32,2.7-3.61,2.7-3.75,2.8-4.12,2.7-4.26,2.7-4.62,2.8-4.84,2.7-5.05,2.8-5.27,2.7-5.49,2.7-5.56,2.8-5.63,2.7-5.7,2.7-5.63,2.8-5.56,2.7-5.49,2.8-5.27,2.7-5.2,2.7-4.91,2.8-4.84,2.7-4.55,2.7-4.26,2.8-4.04,2.7-3.68,2.8-3.39,2.7-3.1,2.7-2.82,2.8-2.6,2.7-2.38,2.7-2.24,2.8-2.09,2.7-2.02,2.8-1.8,2.7-1.66,2.7-1.44,2.8-1.3,2.7-1.08,2.7-.87,2.8-.72,2.7-.43,2.8-.29,2.7-.14,2.7.14,2.8.29,2.7.51,2.7.65,2.8.87,2.7,1.08,2.8,1.23,2.7,1.37,2.7,1.59,2.8,1.8,2.7,1.95,2.7,2.09,2.8,2.31,2.7,2.53,2.8,2.67,2.7,2.89,2.7,3.03,2.8,3.25,2.7,3.47,2.7,3.68,2.8,3.83,2.7,4.04,2.8,4.26,2.7,4.48,2.7,4.69,2.8,4.91,2.7,5.05,2.7,5.2,2.8,5.27,2.7,5.27,2.7,5.2,2.8,4.91,2.7,4.62,2.8,4.19,2.7,3.83,2.7,3.47,2.8,3.18,2.7,3.03,2.7,2.89,2.8,2.67,2.7,2.53,2.8,2.31,2.7,2.17,2.7,1.88,2.8,1.73,2.7,1.59,2.7,1.3,2.8,1.16,2.7.87,2.8.72,2.7.36,2.7.22h2.8l2.7-.14,2.7-.29,2.8-.43,2.7-.58,2.8-.72,2.7-.87,2.7-1.08,2.8-1.23,2.7-1.37,2.7-1.52,2.8-1.66,2.7-1.8,2.8-1.88,2.7-1.95,2.7-2.09,2.8-2.09,2.7-2.17,2.7-2.17,2.8-2.24,2.7-2.24,2.8-2.31,2.7-2.31,2.7-2.24,2.8-2.24,2.7-2.17,2.7-2.17,2.8-2.09,2.7-2.02,2.8-1.95,2.7-1.88,2.7-1.8,2.8-1.66,2.7-1.59,2.7-1.44,2.8-1.3,2.7-1.16,2.8-.94,2.7-.87,2.7-.65,2.8-.43,2.7-.29,2.7-.14h2.8l2.7.14,2.8.22,2.7.36,2.7.36,2.8.43,2.7.36,2.7.36,2.8.36,2.7.22,2.7.14,2.8.07,2.7.07,2.8.07,2.7.07,2.7.07,2.8.07,2.7.07,2.7.14,2.8.22,2.7.22,2.8.22,2.7.29,2.7.22,2.8.22,2.7.14,2.7.22,2.8.07,2.7.14,2.8.07,2.7.07,2.7.07,2.8.07h2.7l2.7.07,2.8.07,2.7.07,2.8.14,2.7.07,2.7.14,2.8.07,2.7.14,2.7.14,2.8.14,2.7.14,2.8.14,2.7.22,2.7.14,2.8.14,2.7.14,2.7.14,2.8.14,2.7.14,2.8.14,2.7.14,2.7.14,2.8.14,2.7.14,2.7.07,2.8.14,2.7.14,2.8.07,2.7.14,2.7.07,2.8.14,2.7.14"/>
  <line class="st4" x1="937.78" y1="127.17" x2="937.78" y2="150.57"/>
  <path class="st4" d="M932.78,133.66l5-8,5,8"/>
  <path class="st4" d="M932.78,144.75l5,8,5-8"/>
  <text class="st6" transform="translate(896.99 170.54)"><tspan x="0" y="0">y</tspan></text>
  <text class="st7" transform="translate(910.8 176.54)"><tspan x="0" y="0">drift</tspan></text>
</svg>